<svg width="31" height="31" viewBox="0 0 31 31" fill="none" xmlns="http://www.w3.org/2000/svg">
<path d="M20.1875 26.75L13.625 22.0625L7.0625 26.75V8.9375C7.0625 8.68886 7.16127 8.4504 7.33709 8.27459C7.5129 8.09877 7.75136 8 8 8H19.25C19.4986 8 19.7371 8.09877 19.9129 8.27459C20.0887 8.4504 20.1875 8.68886 20.1875 8.9375V26.75Z" stroke="#6A6767" stroke-width="2" stroke-linecap="round" stroke-linejoin="round"/>
<path d="M10.8125 8V5.1875C10.8125 4.93886 10.9113 4.7004 11.0871 4.52459C11.2629 4.34877 11.5014 4.25 11.75 4.25H23C23.2486 4.25 23.4871 4.34877 23.6629 4.52459C23.8387 4.7004 23.9375 4.93886 23.9375 5.1875V23L20.1875 20.3164" stroke="#6A6767" stroke-width="2" stroke-linecap="round" stroke-linejoin="round"/>
</svg>
