<svg width="32" height="31" viewBox="0 0 32 31" fill="none" xmlns="http://www.w3.org/2000/svg">
<path d="M9.875 5.1875H6.125C5.60723 5.1875 5.1875 5.60723 5.1875 6.125V24.875C5.1875 25.3928 5.60723 25.8125 6.125 25.8125H9.875C10.3928 25.8125 10.8125 25.3928 10.8125 24.875V6.125C10.8125 5.60723 10.3928 5.1875 9.875 5.1875Z" stroke="#6A6767" stroke-width="2" stroke-linecap="round" stroke-linejoin="round"/>
<path d="M5.1875 9.875H10.8125" stroke="#6A6767" stroke-width="2" stroke-linecap="round" stroke-linejoin="round"/>
<path d="M15.5 5.1875H11.75C11.2322 5.1875 10.8125 5.60723 10.8125 6.125V24.875C10.8125 25.3928 11.2322 25.8125 11.75 25.8125H15.5C16.0178 25.8125 16.4375 25.3928 16.4375 24.875V6.125C16.4375 5.60723 16.0178 5.1875 15.5 5.1875Z" stroke="#6A6767" stroke-width="2" stroke-linecap="round" stroke-linejoin="round"/>
<path d="M24.875 25.8125H30.5" stroke="#6A6767" stroke-width="2" stroke-linecap="round" stroke-linejoin="round"/>
<path d="M21.0707 4.88069L17.4332 5.85569C16.9309 5.99031 16.6329 6.50658 16.7676 7.00882L21.6426 25.1963C21.7772 25.6985 22.2934 25.9966 22.7957 25.8619L26.4332 24.8869C26.9354 24.7523 27.2334 24.236 27.0988 23.7338L22.2238 5.54632C22.0892 5.04408 21.5729 4.74607 21.0707 4.88069Z" stroke="#6A6767" stroke-width="2.00848" stroke-linecap="round" stroke-linejoin="round"/>
<path d="M20.5626 21.5L26.0001 20.0351" stroke="#6A6767" stroke-width="2" stroke-linecap="round" stroke-linejoin="round"/>
<path d="M17.6563 10.625L23.0938 9.17188" stroke="#6A6767" stroke-width="2" stroke-linecap="round" stroke-linejoin="round"/>
</svg>
