<svg width="31" height="31" viewBox="0 0 31 31" fill="none" xmlns="http://www.w3.org/2000/svg">
<path d="M25.5078 13.3437L16.1328 4.8242C15.96 4.66609 15.7342 4.5784 15.5 4.5784C15.2658 4.5784 15.04 4.66609 14.8672 4.8242L5.49219 13.3437C5.39785 13.4328 5.32229 13.5399 5.26996 13.6586C5.21764 13.7774 5.1896 13.9054 5.1875 14.0351V24.875C5.1875 25.1236 5.28627 25.3621 5.46209 25.5379C5.6379 25.7137 5.87636 25.8125 6.125 25.8125H24.875C25.1236 25.8125 25.3621 25.7137 25.5379 25.5379C25.7137 25.3621 25.8125 25.1236 25.8125 24.875V14.0351C25.8104 13.9054 25.7824 13.7774 25.73 13.6586C25.6777 13.5399 25.6022 13.4328 25.5078 13.3437Z" stroke="#0047FF" stroke-width="2" stroke-linecap="round" stroke-linejoin="round" style="mix-blend-mode:hard-light"/>
</svg>
