<svg width="15" height="13" viewBox="0 0 15 13" fill="none" xmlns="http://www.w3.org/2000/svg">
<path d="M7.84609 10.1198L10.9173 11.8698C11.3134 12.0941 11.8009 11.7605 11.6851 11.3503L10.7955 8.21124C10.7714 8.12423 10.7752 8.03289 10.8065 7.94775C10.8378 7.86261 10.8952 7.78712 10.9722 7.72999L13.7266 5.66828C14.0861 5.40031 13.9033 4.8589 13.4341 4.83156L9.83874 4.62374C9.74064 4.61862 9.64633 4.58797 9.56733 4.53552C9.48833 4.48308 9.42807 4.41112 9.3939 4.32843L8.05327 1.29874C8.01779 1.21119 7.95314 1.13556 7.8681 1.08211C7.78307 1.02867 7.68177 1 7.57796 1C7.47415 1 7.37285 1.02867 7.28782 1.08211C7.20278 1.13556 7.13814 1.21119 7.10265 1.29874L5.76202 4.32843C5.72786 4.41112 5.66759 4.48308 5.58859 4.53552C5.50959 4.58797 5.41528 4.61862 5.31718 4.62374L1.72187 4.83156C1.25265 4.8589 1.06984 5.40031 1.42937 5.66828L4.18374 7.72999C4.26073 7.78712 4.31816 7.86261 4.34943 7.94775C4.38069 8.03289 4.38452 8.12423 4.36046 8.21124L3.53781 11.1206C3.39765 11.6128 3.98265 12.012 4.45187 11.7441L7.30984 10.1198C7.38998 10.0741 7.48299 10.0498 7.57796 10.0498C7.67294 10.0498 7.76594 10.0741 7.84609 10.1198Z" fill="white" stroke="black" stroke-width="2" stroke-linecap="round" stroke-linejoin="round"/>
</svg>
