<svg width="16" height="14" viewBox="0 0 16 14" fill="none" xmlns="http://www.w3.org/2000/svg">
<path d="M8.06813 10.4289L11.1394 12.1789C11.5355 12.4031 12.023 12.0695 11.9072 11.6594L11.0175 8.52031C10.9935 8.4333 10.9973 8.34196 11.0285 8.25682C11.0598 8.17167 11.1172 8.09619 11.1942 8.03906L13.9486 5.97734C14.3081 5.70937 14.1253 5.16797 13.6561 5.14062L10.0608 4.93281C9.96269 4.92769 9.86838 4.89703 9.78938 4.84459C9.71038 4.79214 9.65011 4.72018 9.61595 4.6375L8.27532 1.60781C8.23983 1.52026 8.17519 1.44463 8.09015 1.39118C8.00512 1.33774 7.90382 1.30907 7.80001 1.30907C7.6962 1.30907 7.5949 1.33774 7.50986 1.39118C7.42483 1.44463 7.36018 1.52026 7.3247 1.60781L5.98407 4.6375C5.9499 4.72018 5.88964 4.79214 5.81064 4.84459C5.73164 4.89703 5.63733 4.92769 5.53923 4.93281L1.94392 5.14062C1.4747 5.16797 1.29188 5.70937 1.65142 5.97734L4.40579 8.03906C4.48278 8.09619 4.54021 8.17167 4.57148 8.25682C4.60274 8.34196 4.60657 8.4333 4.58251 8.52031L3.75985 11.4297C3.6197 11.9219 4.2047 12.3211 4.67392 12.0531L7.53188 10.4289C7.61203 10.3832 7.70504 10.3589 7.80001 10.3589C7.89498 10.3589 7.98799 10.3832 8.06813 10.4289Z" fill="#FFE600" stroke="#FFE500" stroke-width="2" stroke-linecap="round" stroke-linejoin="round"/>
</svg>
