<svg width="31" height="31" viewBox="0 0 31 31" fill="none" xmlns="http://www.w3.org/2000/svg">
<path d="M26.1523 8.82034C26.7673 10.2562 26.9178 11.8485 26.5829 13.3742C26.2479 14.8999 25.4442 16.2826 24.2843 17.3288C23.1244 18.3751 21.6664 19.0324 20.1144 19.2088C18.5623 19.3852 16.994 19.0718 15.6289 18.3125L9.05468 25.9297C8.52632 26.4581 7.80971 26.7549 7.0625 26.7549C6.31528 26.7549 5.59867 26.4581 5.07031 25.9297C4.54195 25.4014 4.24512 24.6847 4.24512 23.9375C4.24512 23.1903 4.54195 22.4737 5.07031 21.9453L12.6875 15.3711C11.9282 14.006 11.6149 12.4377 11.7912 10.8856C11.9676 9.33361 12.6249 7.87558 13.6712 6.71568C14.7174 5.55579 16.1002 4.75211 17.6259 4.41715C19.1515 4.08219 20.7438 4.23273 22.1797 4.84768L17.2578 9.75784L17.9258 13.0742L21.2422 13.7422L26.1523 8.82034Z" stroke="#6A6767" stroke-width="2" stroke-linecap="round" stroke-linejoin="round"/>
</svg>
